<?xml version="1.0" standalone="no"?>
<svg width="1200px" height="1200px" viewBox="0 0 1200 3000"
     xmlns="http://www.w3.org/2000/svg" version="1.1">
  <rect x="1" y="1" width="1198" height="1198"
        fill="none" stroke="blue" stroke-width="1" />

 <!-- <path d="M1200,0 C1200,0 200,0 400,200  Q400,200 600,400 T600,800 T600,1200 T600,1600"
        fill="none" stroke="red" stroke-width="5"  /> -->

  <path d="M1200,0 C1200,0 200,0 600,400 Q800,600 600,800 T600,1200 T600,1600 C600,1600 400,1800 0,1800"
        fill="none" stroke="red" stroke-width="5"  />
 
 <!-- <path class="SamplePath" d="M100,400 C200,100 400,100 500,400
" stroke="red" stroke-width="5"  /> -->

 <!-- <path class="SamplePath" d="M1200,0 C800,0 300,0 600,400 
" stroke="red" stroke-width="5"  /> -->

</svg>

